<?xml version="1.0" encoding="UTF-8"?>
<svg xmlns="http://www.w3.org/2000/svg" xmlns:xlink="http://www.w3.org/1999/xlink" width="375pt" height="374.999991pt" viewBox="0 0 375 374.999991" version="1.2">
<g id="surface1">
<path style=" stroke:none;fill-rule:nonzero;fill:rgb(100%,39.99939%,76.858521%);fill-opacity:1;" d="M 15.910156 308.363281 C 14.976562 297.300781 19.402344 285.730469 26.808594 277.648438 C 36.34375 267.183594 48.429688 264.71875 61.792969 263.183594 C 77.117188 261.3125 90.058594 250.167969 93.972656 235.195312 C 96.1875 226.773438 96.101562 217.925781 96.015625 209.246094 C 95.929688 190.359375 98.3125 171.300781 115.507812 160.324219 C 133.640625 148.671875 153.136719 159.050781 171.949219 152.074219 C 185.738281 146.96875 194.167969 132.335938 197.484375 118.722656 C 205.828125 84.179688 200.125 45.386719 231.960938 21.476562 C 249.839844 8.035156 272.652344 2.589844 294.359375 9.566406 C 313.9375 15.863281 326.453125 34.15625 330.027344 53.808594 C 331.902344 64.1875 331.558594 75.164062 329.175781 85.371094 C 326.453125 96.859375 322.027344 108.683594 327.132812 120.253906 C 331.730469 130.546875 341.09375 138.289062 346.796875 148.074219 C 353.609375 159.558594 358.546875 172.066406 359.140625 185.507812 C 360.164062 209.757812 347.136719 225.496094 328.070312 238.429688 C 317.515625 245.574219 305.425781 253.144531 302.957031 266.589844 C 300.828125 278.328125 305.085938 289.816406 305.425781 301.472656 C 305.765625 310.660156 303.722656 320.019531 300.402344 328.527344 C 293.765625 345.796875 280.3125 360.003906 262.351562 365.363281 C 239.367188 372.339844 214.9375 362.046875 193.910156 353.027344 C 183.867188 348.773438 172.886719 344.945312 161.816406 345.710938 C 150.328125 346.476562 140.027344 351.070312 128.875 353.707031 C 101.804688 360.175781 75.074219 360.429688 49.535156 348.433594 C 35.574219 341.882812 21.785156 330.226562 17.1875 314.914062 C 16.507812 312.785156 16.167969 310.574219 15.910156 308.363281 Z M 15.910156 308.363281 "/>
</g>
</svg>
